M48
; DRILL file {KiCad 7.0.7} date Mon Sep  4 17:24:42 2023
; FORMAT={-:-/ absolute / inch / decimal}
; #@! TF.CreationDate,2023-09-04T17:24:42+02:00
; #@! TF.GenerationSoftware,Kicad,Pcbnew,7.0.7
; #@! TF.FileFunction,Plated,1,2,PTH
FMAT,2
INCH
; #@! TA.AperFunction,Plated,PTH,ViaDrill
T1C0.0118
; #@! TA.AperFunction,Plated,PTH,ComponentDrill
T2C0.0315
; #@! TA.AperFunction,Plated,PTH,ComponentDrill
T3C0.0394
; #@! TA.AperFunction,Plated,PTH,ComponentDrill
T4C0.0433
; #@! TA.AperFunction,Plated,PTH,ComponentDrill
T5C0.1260
%
G90
G05
T1
X4.25Y-3.5768
X4.252Y-3.8622
X4.815Y-3.6102
X4.8465Y-3.6654
X5.561Y-3.9232
X5.6195Y-3.9001
X6.2747Y-3.8853
T2
X3.7835Y-3.4449
X3.8819Y-4.0008
X3.8819Y-4.4008
X3.9803Y-3.4449
X4.0118Y-4.0008
X4.0118Y-4.4008
X4.0315Y-4.6732
X4.0315Y-4.8701
X4.15Y-3.4
X4.15Y-4.0
X4.15Y-4.25
X4.15Y-4.85
X4.189Y-4.126
X4.25Y-3.4
X4.25Y-4.0
X4.25Y-4.25
X4.25Y-4.85
X4.35Y-3.4
X4.35Y-4.0
X4.35Y-4.25
X4.35Y-4.85
X4.3858Y-4.126
X4.45Y-3.4
X4.45Y-4.0
X4.45Y-4.25
X4.45Y-4.85
X4.55Y-3.4
X4.55Y-4.0
X4.55Y-4.25
X4.55Y-4.85
X4.65Y-3.4
X4.65Y-4.0
X4.65Y-4.25
X4.65Y-4.85
X4.75Y-3.4
X4.75Y-4.0
X4.75Y-4.25
X4.75Y-4.85
X4.85Y-3.4
X4.85Y-4.0
X4.85Y-4.25
X4.85Y-4.85
X4.95Y-3.4
X4.95Y-4.0
X4.95Y-4.25
X4.95Y-4.85
X5.05Y-3.4
X5.05Y-4.0
X5.05Y-4.25
X5.05Y-4.85
X5.15Y-3.4
X5.15Y-4.0
X5.15Y-4.25
X5.15Y-4.85
X5.25Y-3.4
X5.25Y-4.0
X5.25Y-4.25
X5.25Y-4.85
X5.35Y-3.4
X5.35Y-4.0
X5.35Y-4.25
X5.35Y-4.85
X5.45Y-3.4
X5.45Y-4.0
X5.45Y-4.25
X5.45Y-4.85
X5.55Y-4.25
X5.55Y-4.85
X5.65Y-4.25
X5.65Y-4.85
X5.75Y-3.4
X5.75Y-4.0
X5.75Y-4.25
X5.75Y-4.85
X5.85Y-3.4
X5.85Y-4.0
X5.85Y-4.25
X5.85Y-4.85
X5.95Y-3.4
X5.95Y-4.0
X5.95Y-4.25
X5.95Y-4.85
X6.05Y-3.4
X6.05Y-4.0
X6.05Y-4.25
X6.05Y-4.85
X6.15Y-3.4
X6.15Y-4.0
X6.25Y-3.4
X6.25Y-4.0
X6.35Y-3.4
X6.35Y-4.0
X6.35Y-4.25
X6.35Y-4.55
X6.4047Y-4.7555
X6.4047Y-5.0555
X6.45Y-3.4
X6.45Y-4.0
X6.45Y-4.25
X6.45Y-4.55
X6.55Y-3.4
X6.55Y-4.0
X6.55Y-4.25
X6.55Y-4.55
X6.65Y-3.4
X6.65Y-4.0
X6.65Y-4.25
X6.65Y-4.55
X6.75Y-3.4
X6.75Y-4.0
X6.75Y-4.25
X6.75Y-4.55
X6.85Y-3.4
X6.85Y-4.0
X6.85Y-4.25
X6.85Y-4.55
X6.874Y-4.126
X6.95Y-3.4
X6.95Y-4.0
X6.95Y-4.25
X6.95Y-4.55
X7.0047Y-4.7555
X7.0047Y-5.0555
X7.05Y-3.4
X7.05Y-4.0
X7.05Y-4.25
X7.05Y-4.55
X7.0709Y-4.126
T3
X4.2496Y-5.0906
X4.3496Y-5.0906
X4.4496Y-5.0906
X4.5496Y-5.0906
X4.6496Y-5.0906
X4.7496Y-5.0906
X4.8496Y-5.0906
X4.9496Y-5.0906
X5.0496Y-5.0906
X5.1496Y-5.0906
X5.2496Y-5.0906
X5.3496Y-5.0906
X5.4496Y-5.0906
X5.5496Y-5.0906
X5.6496Y-5.0906
X5.7496Y-5.0906
T4
X3.7933Y-3.5728
X3.7933Y-3.8287
X3.9705Y-3.5728
X3.9705Y-3.8287
T5
X3.874Y-3.1
X3.874Y-5.1063
X6.24Y-3.1
T3
G00X6.7238Y-3.1571
M15
G01X6.7238Y-3.0783
M16
G05
G00X6.8813Y-2.9327
M15
G01X6.8025Y-2.9327
M16
G05
G00X6.96Y-3.1571
M15
G01X6.96Y-3.0783
M16
G05
T0
M30
