%TF.GenerationSoftware,KiCad,Pcbnew,7.0.7*%
%TF.CreationDate,2023-09-04T17:24:35+02:00*%
%TF.ProjectId,6507,36353037-2e6b-4696-9361-645f70636258,rev?*%
%TF.SameCoordinates,Original*%
%TF.FileFunction,Soldermask,Top*%
%TF.FilePolarity,Negative*%
%FSLAX46Y46*%
G04 Gerber Fmt 4.6, Leading zero omitted, Abs format (unit mm)*
G04 Created by KiCad (PCBNEW 7.0.7) date 2023-09-04 17:24:35*
%MOMM*%
%LPD*%
G01*
G04 APERTURE LIST*
G04 Aperture macros list*
%AMRoundRect*
0 Rectangle with rounded corners*
0 $1 Rounding radius*
0 $2 $3 $4 $5 $6 $7 $8 $9 X,Y pos of 4 corners*
0 Add a 4 corners polygon primitive as box body*
4,1,4,$2,$3,$4,$5,$6,$7,$8,$9,$2,$3,0*
0 Add four circle primitives for the rounded corners*
1,1,$1+$1,$2,$3*
1,1,$1+$1,$4,$5*
1,1,$1+$1,$6,$7*
1,1,$1+$1,$8,$9*
0 Add four rect primitives between the rounded corners*
20,1,$1+$1,$2,$3,$4,$5,0*
20,1,$1+$1,$4,$5,$6,$7,0*
20,1,$1+$1,$6,$7,$8,$9,0*
20,1,$1+$1,$8,$9,$2,$3,0*%
G04 Aperture macros list end*
%ADD10C,5.600000*%
%ADD11R,1.700000X1.700000*%
%ADD12O,1.700000X1.700000*%
%ADD13O,1.600000X2.400000*%
%ADD14R,1.600000X2.400000*%
%ADD15R,1.600000X1.600000*%
%ADD16C,1.600000*%
%ADD17C,2.000000*%
%ADD18O,1.600000X1.600000*%
%ADD19R,3.500000X3.500000*%
%ADD20RoundRect,0.750000X0.750000X1.000000X-0.750000X1.000000X-0.750000X-1.000000X0.750000X-1.000000X0*%
%ADD21RoundRect,0.875000X0.875000X0.875000X-0.875000X0.875000X-0.875000X-0.875000X0.875000X-0.875000X0*%
G04 APERTURE END LIST*
D10*
%TO.C,REF\u002A\u002A*%
X158496000Y-78740000D03*
%TD*%
%TO.C,REF\u002A\u002A*%
X98400000Y-78740000D03*
%TD*%
%TO.C,REF\u002A\u002A*%
X98400000Y-129700000D03*
%TD*%
D11*
%TO.C,J2*%
X146040000Y-129300000D03*
D12*
X143500000Y-129300000D03*
X140960000Y-129300000D03*
X138420000Y-129300000D03*
X135880000Y-129300000D03*
X133340000Y-129300000D03*
X130800000Y-129300000D03*
X128260000Y-129300000D03*
X125720000Y-129300000D03*
X123180000Y-129300000D03*
X120640000Y-129300000D03*
X118100000Y-129300000D03*
X115560000Y-129300000D03*
X113020000Y-129300000D03*
X110480000Y-129300000D03*
X107940000Y-129300000D03*
%TD*%
D13*
%TO.C,U3*%
X105410000Y-107950000D03*
X107950000Y-107950000D03*
X110490000Y-107950000D03*
X113030000Y-107950000D03*
X115570000Y-107950000D03*
X118110000Y-107950000D03*
X120650000Y-107950000D03*
X123190000Y-107950000D03*
X125730000Y-107950000D03*
X128270000Y-107950000D03*
X130810000Y-107950000D03*
X133350000Y-107950000D03*
X135890000Y-107950000D03*
X138430000Y-107950000D03*
X140970000Y-107950000D03*
X143510000Y-107950000D03*
X146050000Y-107950000D03*
X148590000Y-107950000D03*
X151130000Y-107950000D03*
X153670000Y-107950000D03*
X153670000Y-123190000D03*
X151130000Y-123190000D03*
X148590000Y-123190000D03*
X146050000Y-123190000D03*
X143510000Y-123190000D03*
X140970000Y-123190000D03*
X138430000Y-123190000D03*
X135890000Y-123190000D03*
X133350000Y-123190000D03*
X130810000Y-123190000D03*
X128270000Y-123190000D03*
X125730000Y-123190000D03*
X123190000Y-123190000D03*
X120650000Y-123190000D03*
X118110000Y-123190000D03*
X115570000Y-123190000D03*
X113030000Y-123190000D03*
X110490000Y-123190000D03*
X107950000Y-123190000D03*
D14*
X105410000Y-123190000D03*
%TD*%
D13*
%TO.C,U2*%
X179070000Y-101600000D03*
X176530000Y-101600000D03*
X173990000Y-101600000D03*
X171450000Y-101600000D03*
X168910000Y-101600000D03*
X166370000Y-101600000D03*
X163830000Y-101600000D03*
X161290000Y-101600000D03*
X158750000Y-101600000D03*
X156210000Y-101600000D03*
X153670000Y-101600000D03*
X151130000Y-101600000D03*
X148590000Y-101600000D03*
X146050000Y-101600000D03*
X146050000Y-86360000D03*
X148590000Y-86360000D03*
X151130000Y-86360000D03*
X153670000Y-86360000D03*
X156210000Y-86360000D03*
X158750000Y-86360000D03*
X161290000Y-86360000D03*
X163830000Y-86360000D03*
X166370000Y-86360000D03*
X168910000Y-86360000D03*
X171450000Y-86360000D03*
X173990000Y-86360000D03*
X176530000Y-86360000D03*
D14*
X179070000Y-86360000D03*
%TD*%
D13*
%TO.C,U1*%
X105410000Y-86360000D03*
X107950000Y-86360000D03*
X110490000Y-86360000D03*
X113030000Y-86360000D03*
X115570000Y-86360000D03*
X118110000Y-86360000D03*
X120650000Y-86360000D03*
X123190000Y-86360000D03*
X125730000Y-86360000D03*
X128270000Y-86360000D03*
X130810000Y-86360000D03*
X133350000Y-86360000D03*
X135890000Y-86360000D03*
X138430000Y-86360000D03*
X138430000Y-101600000D03*
X135890000Y-101600000D03*
X133350000Y-101600000D03*
X130810000Y-101600000D03*
X128270000Y-101600000D03*
X125730000Y-101600000D03*
X123190000Y-101600000D03*
X120650000Y-101600000D03*
X118110000Y-101600000D03*
X115570000Y-101600000D03*
X113030000Y-101600000D03*
X110490000Y-101600000D03*
X107950000Y-101600000D03*
D14*
X105410000Y-101600000D03*
%TD*%
%TO.C,U4*%
X161290000Y-115570000D03*
D13*
X163830000Y-115570000D03*
X166370000Y-115570000D03*
X168910000Y-115570000D03*
X171450000Y-115570000D03*
X173990000Y-115570000D03*
X176530000Y-115570000D03*
X179070000Y-115570000D03*
X179070000Y-107950000D03*
X176530000Y-107950000D03*
X173990000Y-107950000D03*
X171450000Y-107950000D03*
X168910000Y-107950000D03*
X166370000Y-107950000D03*
X163830000Y-107950000D03*
X161290000Y-107950000D03*
%TD*%
D15*
%TO.C,X1*%
X177920000Y-120790000D03*
D16*
X162680000Y-120790000D03*
X162680000Y-128410000D03*
X177920000Y-128410000D03*
%TD*%
D17*
%TO.C,SW1*%
X96350000Y-90750000D03*
X96350000Y-97250000D03*
X100850000Y-97250000D03*
X100850000Y-90750000D03*
%TD*%
D16*
%TO.C,R2*%
X98600000Y-111780000D03*
D18*
X98600000Y-101620000D03*
%TD*%
%TO.C,R1*%
X101900000Y-101620000D03*
D16*
X101900000Y-111780000D03*
%TD*%
D19*
%TO.C,J1*%
X170784000Y-79189500D03*
D20*
X176784000Y-79189500D03*
D21*
X173784000Y-74489500D03*
%TD*%
D16*
%TO.C,C4*%
X102400000Y-123700000D03*
X102400000Y-118700000D03*
%TD*%
%TO.C,C3*%
X179600000Y-104800000D03*
X174600000Y-104800000D03*
%TD*%
%TO.C,C2*%
X111400000Y-104800000D03*
X106400000Y-104800000D03*
%TD*%
%TO.C,C1*%
X96100000Y-87500000D03*
X101100000Y-87500000D03*
%TD*%
M02*
