%TF.GenerationSoftware,KiCad,Pcbnew,7.0.7*%
%TF.CreationDate,2023-09-04T17:24:35+02:00*%
%TF.ProjectId,6507,36353037-2e6b-4696-9361-645f70636258,rev?*%
%TF.SameCoordinates,Original*%
%TF.FileFunction,Legend,Top*%
%TF.FilePolarity,Positive*%
%FSLAX46Y46*%
G04 Gerber Fmt 4.6, Leading zero omitted, Abs format (unit mm)*
G04 Created by KiCad (PCBNEW 7.0.7) date 2023-09-04 17:24:35*
%MOMM*%
%LPD*%
G01*
G04 APERTURE LIST*
%ADD10C,0.150000*%
%ADD11C,0.120000*%
G04 APERTURE END LIST*
D10*
X147824819Y-129633333D02*
X148539104Y-129633333D01*
X148539104Y-129633333D02*
X148681961Y-129680952D01*
X148681961Y-129680952D02*
X148777200Y-129776190D01*
X148777200Y-129776190D02*
X148824819Y-129919047D01*
X148824819Y-129919047D02*
X148824819Y-130014285D01*
X147920057Y-129204761D02*
X147872438Y-129157142D01*
X147872438Y-129157142D02*
X147824819Y-129061904D01*
X147824819Y-129061904D02*
X147824819Y-128823809D01*
X147824819Y-128823809D02*
X147872438Y-128728571D01*
X147872438Y-128728571D02*
X147920057Y-128680952D01*
X147920057Y-128680952D02*
X148015295Y-128633333D01*
X148015295Y-128633333D02*
X148110533Y-128633333D01*
X148110533Y-128633333D02*
X148253390Y-128680952D01*
X148253390Y-128680952D02*
X148824819Y-129252380D01*
X148824819Y-129252380D02*
X148824819Y-128633333D01*
X102534819Y-116331904D02*
X103344342Y-116331904D01*
X103344342Y-116331904D02*
X103439580Y-116284285D01*
X103439580Y-116284285D02*
X103487200Y-116236666D01*
X103487200Y-116236666D02*
X103534819Y-116141428D01*
X103534819Y-116141428D02*
X103534819Y-115950952D01*
X103534819Y-115950952D02*
X103487200Y-115855714D01*
X103487200Y-115855714D02*
X103439580Y-115808095D01*
X103439580Y-115808095D02*
X103344342Y-115760476D01*
X103344342Y-115760476D02*
X102534819Y-115760476D01*
X102534819Y-115379523D02*
X102534819Y-114760476D01*
X102534819Y-114760476D02*
X102915771Y-115093809D01*
X102915771Y-115093809D02*
X102915771Y-114950952D01*
X102915771Y-114950952D02*
X102963390Y-114855714D01*
X102963390Y-114855714D02*
X103011009Y-114808095D01*
X103011009Y-114808095D02*
X103106247Y-114760476D01*
X103106247Y-114760476D02*
X103344342Y-114760476D01*
X103344342Y-114760476D02*
X103439580Y-114808095D01*
X103439580Y-114808095D02*
X103487200Y-114855714D01*
X103487200Y-114855714D02*
X103534819Y-114950952D01*
X103534819Y-114950952D02*
X103534819Y-115236666D01*
X103534819Y-115236666D02*
X103487200Y-115331904D01*
X103487200Y-115331904D02*
X103439580Y-115379523D01*
X180854819Y-94741904D02*
X181664342Y-94741904D01*
X181664342Y-94741904D02*
X181759580Y-94694285D01*
X181759580Y-94694285D02*
X181807200Y-94646666D01*
X181807200Y-94646666D02*
X181854819Y-94551428D01*
X181854819Y-94551428D02*
X181854819Y-94360952D01*
X181854819Y-94360952D02*
X181807200Y-94265714D01*
X181807200Y-94265714D02*
X181759580Y-94218095D01*
X181759580Y-94218095D02*
X181664342Y-94170476D01*
X181664342Y-94170476D02*
X180854819Y-94170476D01*
X180950057Y-93741904D02*
X180902438Y-93694285D01*
X180902438Y-93694285D02*
X180854819Y-93599047D01*
X180854819Y-93599047D02*
X180854819Y-93360952D01*
X180854819Y-93360952D02*
X180902438Y-93265714D01*
X180902438Y-93265714D02*
X180950057Y-93218095D01*
X180950057Y-93218095D02*
X181045295Y-93170476D01*
X181045295Y-93170476D02*
X181140533Y-93170476D01*
X181140533Y-93170476D02*
X181283390Y-93218095D01*
X181283390Y-93218095D02*
X181854819Y-93789523D01*
X181854819Y-93789523D02*
X181854819Y-93170476D01*
X102534819Y-94741904D02*
X103344342Y-94741904D01*
X103344342Y-94741904D02*
X103439580Y-94694285D01*
X103439580Y-94694285D02*
X103487200Y-94646666D01*
X103487200Y-94646666D02*
X103534819Y-94551428D01*
X103534819Y-94551428D02*
X103534819Y-94360952D01*
X103534819Y-94360952D02*
X103487200Y-94265714D01*
X103487200Y-94265714D02*
X103439580Y-94218095D01*
X103439580Y-94218095D02*
X103344342Y-94170476D01*
X103344342Y-94170476D02*
X102534819Y-94170476D01*
X103534819Y-93170476D02*
X103534819Y-93741904D01*
X103534819Y-93456190D02*
X102534819Y-93456190D01*
X102534819Y-93456190D02*
X102677676Y-93551428D01*
X102677676Y-93551428D02*
X102772914Y-93646666D01*
X102772914Y-93646666D02*
X102820533Y-93741904D01*
X158414819Y-112521904D02*
X159224342Y-112521904D01*
X159224342Y-112521904D02*
X159319580Y-112474285D01*
X159319580Y-112474285D02*
X159367200Y-112426666D01*
X159367200Y-112426666D02*
X159414819Y-112331428D01*
X159414819Y-112331428D02*
X159414819Y-112140952D01*
X159414819Y-112140952D02*
X159367200Y-112045714D01*
X159367200Y-112045714D02*
X159319580Y-111998095D01*
X159319580Y-111998095D02*
X159224342Y-111950476D01*
X159224342Y-111950476D02*
X158414819Y-111950476D01*
X158748152Y-111045714D02*
X159414819Y-111045714D01*
X158367200Y-111283809D02*
X159081485Y-111521904D01*
X159081485Y-111521904D02*
X159081485Y-110902857D01*
X169490476Y-124054819D02*
X170157142Y-125054819D01*
X170157142Y-124054819D02*
X169490476Y-125054819D01*
X171061904Y-125054819D02*
X170490476Y-125054819D01*
X170776190Y-125054819D02*
X170776190Y-124054819D01*
X170776190Y-124054819D02*
X170680952Y-124197676D01*
X170680952Y-124197676D02*
X170585714Y-124292914D01*
X170585714Y-124292914D02*
X170490476Y-124340533D01*
X98959200Y-95313332D02*
X99006819Y-95170475D01*
X99006819Y-95170475D02*
X99006819Y-94932380D01*
X99006819Y-94932380D02*
X98959200Y-94837142D01*
X98959200Y-94837142D02*
X98911580Y-94789523D01*
X98911580Y-94789523D02*
X98816342Y-94741904D01*
X98816342Y-94741904D02*
X98721104Y-94741904D01*
X98721104Y-94741904D02*
X98625866Y-94789523D01*
X98625866Y-94789523D02*
X98578247Y-94837142D01*
X98578247Y-94837142D02*
X98530628Y-94932380D01*
X98530628Y-94932380D02*
X98483009Y-95122856D01*
X98483009Y-95122856D02*
X98435390Y-95218094D01*
X98435390Y-95218094D02*
X98387771Y-95265713D01*
X98387771Y-95265713D02*
X98292533Y-95313332D01*
X98292533Y-95313332D02*
X98197295Y-95313332D01*
X98197295Y-95313332D02*
X98102057Y-95265713D01*
X98102057Y-95265713D02*
X98054438Y-95218094D01*
X98054438Y-95218094D02*
X98006819Y-95122856D01*
X98006819Y-95122856D02*
X98006819Y-94884761D01*
X98006819Y-94884761D02*
X98054438Y-94741904D01*
X98006819Y-94408570D02*
X99006819Y-94170475D01*
X99006819Y-94170475D02*
X98292533Y-93979999D01*
X98292533Y-93979999D02*
X99006819Y-93789523D01*
X99006819Y-93789523D02*
X98006819Y-93551428D01*
X99006819Y-92646666D02*
X99006819Y-93218094D01*
X99006819Y-92932380D02*
X98006819Y-92932380D01*
X98006819Y-92932380D02*
X98149676Y-93027618D01*
X98149676Y-93027618D02*
X98244914Y-93122856D01*
X98244914Y-93122856D02*
X98292533Y-93218094D01*
X96684819Y-106866666D02*
X96208628Y-107199999D01*
X96684819Y-107438094D02*
X95684819Y-107438094D01*
X95684819Y-107438094D02*
X95684819Y-107057142D01*
X95684819Y-107057142D02*
X95732438Y-106961904D01*
X95732438Y-106961904D02*
X95780057Y-106914285D01*
X95780057Y-106914285D02*
X95875295Y-106866666D01*
X95875295Y-106866666D02*
X96018152Y-106866666D01*
X96018152Y-106866666D02*
X96113390Y-106914285D01*
X96113390Y-106914285D02*
X96161009Y-106961904D01*
X96161009Y-106961904D02*
X96208628Y-107057142D01*
X96208628Y-107057142D02*
X96208628Y-107438094D01*
X95780057Y-106485713D02*
X95732438Y-106438094D01*
X95732438Y-106438094D02*
X95684819Y-106342856D01*
X95684819Y-106342856D02*
X95684819Y-106104761D01*
X95684819Y-106104761D02*
X95732438Y-106009523D01*
X95732438Y-106009523D02*
X95780057Y-105961904D01*
X95780057Y-105961904D02*
X95875295Y-105914285D01*
X95875295Y-105914285D02*
X95970533Y-105914285D01*
X95970533Y-105914285D02*
X96113390Y-105961904D01*
X96113390Y-105961904D02*
X96684819Y-106533332D01*
X96684819Y-106533332D02*
X96684819Y-105914285D01*
X102354819Y-106866666D02*
X101878628Y-107199999D01*
X102354819Y-107438094D02*
X101354819Y-107438094D01*
X101354819Y-107438094D02*
X101354819Y-107057142D01*
X101354819Y-107057142D02*
X101402438Y-106961904D01*
X101402438Y-106961904D02*
X101450057Y-106914285D01*
X101450057Y-106914285D02*
X101545295Y-106866666D01*
X101545295Y-106866666D02*
X101688152Y-106866666D01*
X101688152Y-106866666D02*
X101783390Y-106914285D01*
X101783390Y-106914285D02*
X101831009Y-106961904D01*
X101831009Y-106961904D02*
X101878628Y-107057142D01*
X101878628Y-107057142D02*
X101878628Y-107438094D01*
X102354819Y-105914285D02*
X102354819Y-106485713D01*
X102354819Y-106199999D02*
X101354819Y-106199999D01*
X101354819Y-106199999D02*
X101497676Y-106295237D01*
X101497676Y-106295237D02*
X101592914Y-106390475D01*
X101592914Y-106390475D02*
X101640533Y-106485713D01*
X178900666Y-72894319D02*
X178900666Y-73608604D01*
X178900666Y-73608604D02*
X178853047Y-73751461D01*
X178853047Y-73751461D02*
X178757809Y-73846700D01*
X178757809Y-73846700D02*
X178614952Y-73894319D01*
X178614952Y-73894319D02*
X178519714Y-73894319D01*
X179900666Y-73894319D02*
X179329238Y-73894319D01*
X179614952Y-73894319D02*
X179614952Y-72894319D01*
X179614952Y-72894319D02*
X179519714Y-73037176D01*
X179519714Y-73037176D02*
X179424476Y-73132414D01*
X179424476Y-73132414D02*
X179329238Y-73180033D01*
X100759580Y-121466666D02*
X100807200Y-121514285D01*
X100807200Y-121514285D02*
X100854819Y-121657142D01*
X100854819Y-121657142D02*
X100854819Y-121752380D01*
X100854819Y-121752380D02*
X100807200Y-121895237D01*
X100807200Y-121895237D02*
X100711961Y-121990475D01*
X100711961Y-121990475D02*
X100616723Y-122038094D01*
X100616723Y-122038094D02*
X100426247Y-122085713D01*
X100426247Y-122085713D02*
X100283390Y-122085713D01*
X100283390Y-122085713D02*
X100092914Y-122038094D01*
X100092914Y-122038094D02*
X99997676Y-121990475D01*
X99997676Y-121990475D02*
X99902438Y-121895237D01*
X99902438Y-121895237D02*
X99854819Y-121752380D01*
X99854819Y-121752380D02*
X99854819Y-121657142D01*
X99854819Y-121657142D02*
X99902438Y-121514285D01*
X99902438Y-121514285D02*
X99950057Y-121466666D01*
X100188152Y-120609523D02*
X100854819Y-120609523D01*
X99807200Y-120847618D02*
X100521485Y-121085713D01*
X100521485Y-121085713D02*
X100521485Y-120466666D01*
X172333333Y-105159580D02*
X172285714Y-105207200D01*
X172285714Y-105207200D02*
X172142857Y-105254819D01*
X172142857Y-105254819D02*
X172047619Y-105254819D01*
X172047619Y-105254819D02*
X171904762Y-105207200D01*
X171904762Y-105207200D02*
X171809524Y-105111961D01*
X171809524Y-105111961D02*
X171761905Y-105016723D01*
X171761905Y-105016723D02*
X171714286Y-104826247D01*
X171714286Y-104826247D02*
X171714286Y-104683390D01*
X171714286Y-104683390D02*
X171761905Y-104492914D01*
X171761905Y-104492914D02*
X171809524Y-104397676D01*
X171809524Y-104397676D02*
X171904762Y-104302438D01*
X171904762Y-104302438D02*
X172047619Y-104254819D01*
X172047619Y-104254819D02*
X172142857Y-104254819D01*
X172142857Y-104254819D02*
X172285714Y-104302438D01*
X172285714Y-104302438D02*
X172333333Y-104350057D01*
X172666667Y-104254819D02*
X173285714Y-104254819D01*
X173285714Y-104254819D02*
X172952381Y-104635771D01*
X172952381Y-104635771D02*
X173095238Y-104635771D01*
X173095238Y-104635771D02*
X173190476Y-104683390D01*
X173190476Y-104683390D02*
X173238095Y-104731009D01*
X173238095Y-104731009D02*
X173285714Y-104826247D01*
X173285714Y-104826247D02*
X173285714Y-105064342D01*
X173285714Y-105064342D02*
X173238095Y-105159580D01*
X173238095Y-105159580D02*
X173190476Y-105207200D01*
X173190476Y-105207200D02*
X173095238Y-105254819D01*
X173095238Y-105254819D02*
X172809524Y-105254819D01*
X172809524Y-105254819D02*
X172714286Y-105207200D01*
X172714286Y-105207200D02*
X172666667Y-105159580D01*
X104133333Y-105159580D02*
X104085714Y-105207200D01*
X104085714Y-105207200D02*
X103942857Y-105254819D01*
X103942857Y-105254819D02*
X103847619Y-105254819D01*
X103847619Y-105254819D02*
X103704762Y-105207200D01*
X103704762Y-105207200D02*
X103609524Y-105111961D01*
X103609524Y-105111961D02*
X103561905Y-105016723D01*
X103561905Y-105016723D02*
X103514286Y-104826247D01*
X103514286Y-104826247D02*
X103514286Y-104683390D01*
X103514286Y-104683390D02*
X103561905Y-104492914D01*
X103561905Y-104492914D02*
X103609524Y-104397676D01*
X103609524Y-104397676D02*
X103704762Y-104302438D01*
X103704762Y-104302438D02*
X103847619Y-104254819D01*
X103847619Y-104254819D02*
X103942857Y-104254819D01*
X103942857Y-104254819D02*
X104085714Y-104302438D01*
X104085714Y-104302438D02*
X104133333Y-104350057D01*
X104514286Y-104350057D02*
X104561905Y-104302438D01*
X104561905Y-104302438D02*
X104657143Y-104254819D01*
X104657143Y-104254819D02*
X104895238Y-104254819D01*
X104895238Y-104254819D02*
X104990476Y-104302438D01*
X104990476Y-104302438D02*
X105038095Y-104350057D01*
X105038095Y-104350057D02*
X105085714Y-104445295D01*
X105085714Y-104445295D02*
X105085714Y-104540533D01*
X105085714Y-104540533D02*
X105038095Y-104683390D01*
X105038095Y-104683390D02*
X104466667Y-105254819D01*
X104466667Y-105254819D02*
X105085714Y-105254819D01*
X98433333Y-85659580D02*
X98385714Y-85707200D01*
X98385714Y-85707200D02*
X98242857Y-85754819D01*
X98242857Y-85754819D02*
X98147619Y-85754819D01*
X98147619Y-85754819D02*
X98004762Y-85707200D01*
X98004762Y-85707200D02*
X97909524Y-85611961D01*
X97909524Y-85611961D02*
X97861905Y-85516723D01*
X97861905Y-85516723D02*
X97814286Y-85326247D01*
X97814286Y-85326247D02*
X97814286Y-85183390D01*
X97814286Y-85183390D02*
X97861905Y-84992914D01*
X97861905Y-84992914D02*
X97909524Y-84897676D01*
X97909524Y-84897676D02*
X98004762Y-84802438D01*
X98004762Y-84802438D02*
X98147619Y-84754819D01*
X98147619Y-84754819D02*
X98242857Y-84754819D01*
X98242857Y-84754819D02*
X98385714Y-84802438D01*
X98385714Y-84802438D02*
X98433333Y-84850057D01*
X99385714Y-85754819D02*
X98814286Y-85754819D01*
X99100000Y-85754819D02*
X99100000Y-84754819D01*
X99100000Y-84754819D02*
X99004762Y-84897676D01*
X99004762Y-84897676D02*
X98909524Y-84992914D01*
X98909524Y-84992914D02*
X98814286Y-85040533D01*
D11*
%TO.C,J2*%
X144770000Y-130630000D02*
X106610000Y-130630000D01*
X144770000Y-127970000D02*
X144770000Y-130630000D01*
X106610000Y-127970000D02*
X106610000Y-130630000D01*
X147370000Y-127970000D02*
X147370000Y-129300000D01*
X144770000Y-127970000D02*
X106610000Y-127970000D01*
X146040000Y-127970000D02*
X147370000Y-127970000D01*
%TO.C,U3*%
X104080000Y-116570000D02*
G75*
G03*
X104080000Y-114570000I0J1000000D01*
G01*
X155060000Y-106510000D02*
X104020000Y-106510000D01*
X104080000Y-109510000D02*
X104080000Y-114570000D01*
X155060000Y-124630000D02*
X155060000Y-106510000D01*
X155000000Y-121630000D02*
X155000000Y-109510000D01*
X104020000Y-124630000D02*
X155060000Y-124630000D01*
X104080000Y-116570000D02*
X104080000Y-121630000D01*
X104020000Y-106510000D02*
X104020000Y-124630000D01*
X104080000Y-121630000D02*
X155000000Y-121630000D01*
X155000000Y-109510000D02*
X104080000Y-109510000D01*
%TO.C,U2*%
X180400000Y-92980000D02*
G75*
G03*
X180400000Y-94980000I0J-1000000D01*
G01*
X180400000Y-87920000D02*
X144720000Y-87920000D01*
X180400000Y-92980000D02*
X180400000Y-87920000D01*
X180460000Y-103040000D02*
X180460000Y-84920000D01*
X180400000Y-100040000D02*
X180400000Y-94980000D01*
X144720000Y-87920000D02*
X144720000Y-100040000D01*
X144660000Y-103040000D02*
X180460000Y-103040000D01*
X144660000Y-84920000D02*
X144660000Y-103040000D01*
X144720000Y-100040000D02*
X180400000Y-100040000D01*
X180460000Y-84920000D02*
X144660000Y-84920000D01*
%TO.C,U1*%
X104080000Y-94980000D02*
G75*
G03*
X104080000Y-92980000I0J1000000D01*
G01*
X104080000Y-100040000D02*
X139760000Y-100040000D01*
X104080000Y-94980000D02*
X104080000Y-100040000D01*
X104020000Y-84920000D02*
X104020000Y-103040000D01*
X104080000Y-87920000D02*
X104080000Y-92980000D01*
X139760000Y-100040000D02*
X139760000Y-87920000D01*
X139820000Y-84920000D02*
X104020000Y-84920000D01*
X139820000Y-103040000D02*
X139820000Y-84920000D01*
X139760000Y-87920000D02*
X104080000Y-87920000D01*
X104020000Y-103040000D02*
X139820000Y-103040000D01*
%TO.C,U4*%
X159960000Y-112760000D02*
X159960000Y-114010000D01*
X180460000Y-106510000D02*
X159900000Y-106510000D01*
X180400000Y-114010000D02*
X180400000Y-109510000D01*
X159900000Y-117010000D02*
X180460000Y-117010000D01*
X180400000Y-109510000D02*
X159960000Y-109510000D01*
X159960000Y-109510000D02*
X159960000Y-110760000D01*
X180460000Y-117010000D02*
X180460000Y-106510000D01*
X159960000Y-114010000D02*
X180400000Y-114010000D01*
X159900000Y-106510000D02*
X159900000Y-117010000D01*
X159960000Y-112760000D02*
G75*
G03*
X159960000Y-110760000I0J1000000D01*
G01*
%TO.C,X1*%
X180750000Y-130300000D02*
X180750000Y-118150000D01*
X160600000Y-131050000D02*
X180000000Y-131050000D01*
X159850000Y-118900000D02*
X159850000Y-130300000D01*
X180750000Y-118150000D02*
X160600000Y-118150000D01*
X160600000Y-118150000D02*
G75*
G03*
X159850000Y-118900000I0J-750000D01*
G01*
X180000000Y-131050000D02*
G75*
G03*
X180750000Y-130300000I0J750000D01*
G01*
X159850000Y-130300000D02*
G75*
G03*
X160600000Y-131050000I750000J0D01*
G01*
%TO.C,SW1*%
X97850000Y-97500000D02*
X99350000Y-97500000D01*
X99350000Y-90500000D02*
X97850000Y-90500000D01*
X101850000Y-96250000D02*
X101850000Y-91750000D01*
X95350000Y-91750000D02*
X95350000Y-96250000D01*
%TO.C,R2*%
X98600000Y-102660000D02*
X98600000Y-103430000D01*
X98600000Y-110740000D02*
X98600000Y-109970000D01*
X97230000Y-109970000D02*
X99970000Y-109970000D01*
X99970000Y-103430000D02*
X97230000Y-103430000D01*
X99970000Y-109970000D02*
X99970000Y-103430000D01*
X97230000Y-103430000D02*
X97230000Y-109970000D01*
%TO.C,R1*%
X100530000Y-103430000D02*
X100530000Y-109970000D01*
X103270000Y-109970000D02*
X103270000Y-103430000D01*
X103270000Y-103430000D02*
X100530000Y-103430000D01*
X100530000Y-109970000D02*
X103270000Y-109970000D01*
X101900000Y-110740000D02*
X101900000Y-109970000D01*
X101900000Y-102660000D02*
X101900000Y-103430000D01*
%TO.C,J1*%
X184584000Y-83789500D02*
X169884000Y-83789500D01*
X184584000Y-74589500D02*
X184584000Y-83789500D01*
X169884000Y-74589500D02*
X171784000Y-74589500D01*
X169884000Y-77289500D02*
X169884000Y-74589500D01*
X169884000Y-83789500D02*
X169884000Y-81189500D01*
X175784000Y-74589500D02*
X184584000Y-74589500D01*
X169684000Y-82939500D02*
X169684000Y-83989500D01*
X170734000Y-83989500D02*
X169684000Y-83989500D01*
%TO.C,C4*%
X103455000Y-123470000D02*
X103470000Y-123470000D01*
X101330000Y-118930000D02*
X101345000Y-118930000D01*
X101330000Y-123470000D02*
X101345000Y-123470000D01*
X103455000Y-118930000D02*
X103470000Y-118930000D01*
X101330000Y-123470000D02*
X101330000Y-118930000D01*
X103470000Y-123470000D02*
X103470000Y-118930000D01*
%TO.C,C3*%
X179370000Y-103745000D02*
X179370000Y-103730000D01*
X174830000Y-105870000D02*
X174830000Y-105855000D01*
X179370000Y-105870000D02*
X179370000Y-105855000D01*
X174830000Y-103745000D02*
X174830000Y-103730000D01*
X179370000Y-105870000D02*
X174830000Y-105870000D01*
X179370000Y-103730000D02*
X174830000Y-103730000D01*
%TO.C,C2*%
X106630000Y-105870000D02*
X111170000Y-105870000D01*
X106630000Y-103730000D02*
X111170000Y-103730000D01*
X111170000Y-105855000D02*
X111170000Y-105870000D01*
X106630000Y-103730000D02*
X106630000Y-103745000D01*
X111170000Y-103730000D02*
X111170000Y-103745000D01*
X106630000Y-105855000D02*
X106630000Y-105870000D01*
%TO.C,C1*%
X96330000Y-88555000D02*
X96330000Y-88570000D01*
X100870000Y-86430000D02*
X100870000Y-86445000D01*
X96330000Y-86430000D02*
X96330000Y-86445000D01*
X100870000Y-88555000D02*
X100870000Y-88570000D01*
X96330000Y-86430000D02*
X100870000Y-86430000D01*
X96330000Y-88570000D02*
X100870000Y-88570000D01*
%TD*%
M02*
